#!OML:ASF C:\Vicon Data\Big\jianyuan-13\jianyuan\Session 1\Capture.male.ASF
:FULLY-SPECIFIED
:DEGREES
112
root -8.131799 17.484150 -17.019609 6.876946 9.321581 0.420531
lowerback -9.460385 1.875288 -1.172949 
upperback 2.895871 2.696233 -0.459091 
thorax 8.352751 1.263904 0.618153 
lowerneck -7.986315 -3.301574 2.211455 
upperneck 2.031801 -4.554684 -1.541780 
head 1.915891 -2.293609 -1.048015 
rclavicle 0.000000 0.000000 
rhumerus -25.424849 1.368525 -93.113200 
rradius 47.585894 
rwrist 7.180840 
rhand -15.423999 -19.492148 
rfingers 0.000000 
rthumb 10.755851 -49.196798 
lclavicle 0.000000 0.000000 
lhumerus -49.553250 35.688903 59.796496 
lradius 24.346546 
lwrist -60.774848 
lhand -19.810805 -0.214133 
lfingers 0.000000 
lthumb 6.522495 29.665396 
rfemur -2.640989 3.288355 26.474850 
rtibia 21.209199 
rfoot -22.600649 -6.888342 
rtoes -25.763744 
lfemur -26.409048 -4.758622 -17.069050 
ltibia 8.449518 
lfoot -4.634094 10.772354 
ltoes -41.368532 
113
root -8.112037 17.479218 -16.948985 6.957489 9.139882 0.439047
lowerback -9.568414 1.931022 -1.240217 
upperback 2.874016 2.781942 -0.472152 
thorax 8.388150 1.301931 0.659801 
lowerneck -8.102078 -3.322759 2.263821 
upperneck 2.127158 -4.587680 -1.599067 
head 1.965235 -2.310959 -1.081403 
rclavicle 0.000000 0.000000 
rhumerus -25.542627 1.517322 -93.120032 
rradius 47.931636 
rwrist 6.992415 
rhand -15.408429 -19.626207 
rfingers 0.000000 
rthumb 10.770775 -49.330045 
lclavicle 0.000000 0.000000 
lhumerus -49.689333 35.971146 59.520718 
lradius 24.268234 
lwrist -61.133542 
lhand -19.756998 -0.265552 
lfingers 0.000000 
lthumb 6.574426 29.612425 
rfemur -2.507602 3.372333 26.426249 
rtibia 21.265076 
rfoot -22.625465 -6.898740 
rtoes -26.198190 
lfemur -26.470730 -4.636594 -17.112129 
ltibia 8.800780 
lfoot -4.500615 10.521031 
ltoes -41.869455 
114
root -8.091996 17.473078 -16.881789 6.949296 8.979665 0.422311
lowerback -9.547068 1.978774 -1.218567 
upperback 2.868693 2.844803 -0.499839 
thorax 8.371518 1.334696 0.627796 
lowerneck -8.076644 -3.295493 2.189212 
upperneck 2.101098 -4.546406 -1.528235 
head 1.955939 -2.289119 -1.043373 
rclavicle 0.000000 0.000000 
rhumerus -25.603814 1.624970 -93.180355 
rradius 48.148624 
rwrist 6.804085 
rhand -15.391873 -19.626891 
rfingers 0.000000 
rthumb 10.786872 -49.329911 
lclavicle 0.000000 0.000000 
lhumerus -49.647552 35.959726 59.538257 
lradius 24.274270 
lwrist -60.769823 
lhand -19.618167 -0.313804 
lfingers 0.000000 
lthumb 6.708465 29.559950 
rfemur -2.299159 3.394234 26.435923 
rtibia 21.312273 
rfoot -22.603428 -7.055589 
rtoes -27.100134 
lfemur -26.482467 -4.536882 -17.127797 
ltibia 9.263976 
lfoot -4.466062 10.280911 
ltoes -41.844461 
115
root -8.070018 17.465635 -16.810696 7.004292 8.755798 0.375836
lowerback -9.665075 2.036840 -1.189134 
upperback 2.872116 2.921688 -0.510266 
thorax 8.444676 1.372819 0.617871 
lowerneck -8.108672 -3.273807 2.125290 
upperneck 2.093711 -4.513723 -1.480600 
head 1.962276 -2.272161 -1.016746 
rclavicle 0.000000 0.000000 
rhumerus -25.592126 1.574551 -93.270931 
rradius 48.287768 
rwrist 6.919443 
rhand -15.214536 -19.627513 
rfingers 0.000000 
rthumb 10.957839 -49.321470 
lclavicle 0.000000 0.000000 
lhumerus -49.699012 36.008117 59.479887 
lradius 24.356908 
lwrist -61.021917 
lhand -19.582298 -0.155622 
lfingers 0.000000 
lthumb 6.743051 29.717054 
rfemur -2.094824 3.464827 26.434334 
rtibia 21.346602 
rfoot -22.634772 -6.981906 
rtoes -27.206219 
lfemur -26.560603 -4.365744 -17.114004 
ltibia 9.790384 
lfoot -4.435576 10.019145 
ltoes -41.515441 
116
root -8.048320 17.458429 -16.740741 7.073290 8.548356 0.367568
lowerback -9.715501 2.101012 -1.213865 
upperback 2.831965 3.012201 -0.526344 
thorax 8.428856 1.416194 0.630917 
lowerneck -8.135498 -3.302561 2.112504 
upperneck 2.123823 -4.550956 -1.485204 
head 1.976446 -2.290877 -1.018734 
rclavicle 0.000000 0.000000 
rhumerus -25.666458 1.640827 -93.334845 
rradius 48.374276 
rwrist 6.703299 
rhand -15.359130 -19.528830 
rfingers 0.000000 
rthumb 10.818321 -49.230164 
lclavicle 0.000000 0.000000 
lhumerus -49.362765 35.188507 60.259016 
lradius 24.570417 
lwrist -59.816573 
lhand -19.564503 0.023893 
lfingers 0.000000 
lthumb 6.760257 29.895928 
rfemur -1.901907 3.626279 26.383266 
rtibia 21.446461 
rfoot -22.770129 -6.821818 
rtoes -26.324129 
lfemur -26.563766 -4.220531 -17.145211 
ltibia 10.176577 
lfoot -4.262092 9.703252 
ltoes -41.563102 
117
root -8.025373 17.451301 -16.665243 7.130992 8.289302 0.442511
lowerback -9.806519 2.160693 -1.297759 
upperback 2.811736 3.107810 -0.569928 
thorax 8.456558 1.459103 0.651165 
lowerneck -8.228925 -3.285255 2.054471 
upperneck 2.253624 -4.523446 -1.480499 
head 2.038108 -2.277121 -1.011257 
rclavicle 0.000000 0.000000 
rhumerus -25.795106 1.759436 -93.383063 
rradius 48.578477 
rwrist 6.760849 
rhand -15.256166 -19.580609 
rfingers 0.000000 
rthumb 10.917735 -49.276719 
lclavicle 0.000000 0.000000 
lhumerus -49.717476 35.860928 59.534771 
lradius 24.291997 
lwrist -60.860418 
lhand -19.961713 -0.168176 
lfingers 0.000000 
lthumb 6.376761 29.715836 
rfemur -1.749529 3.641979 26.220079 
rtibia 21.611144 
rfoot -22.794233 -6.676992 
rtoes -26.544494 
lfemur -26.451032 -4.204707 -17.212665 
ltibia 10.507316 
lfoot -4.403006 9.587478 
ltoes -41.642675 
